<svg width="36" height="36" viewBox="0 0 36 36" fill="none" xmlns="http://www.w3.org/2000/svg">
<circle cx="18" cy="18" r="17" stroke="black" stroke-width="2"/>
<g clip-path="url(#clip0_2323_26)">
<path d="M9.37048 8.58928C8.30116 7.36102 6.34413 8.52338 7.21938 10.4599C7.80241 11.7519 8.92887 14.9093 10.5014 17.1835C12.0746 19.4577 13.7511 19.2145 15.4445 19.7653L16.661 20.3945L24.9836 29.9665L26.6666 28.5024L26.6755 28.4951C26.4294 28.2117 18.8605 19.5053 15.8678 16.0637C12.9059 12.6571 9.89051 9.18764 9.37048 8.58928Z" fill="black"/>
<path d="M29.3436 10.3852L26.4403 13.7258C26.2543 13.9397 25.9313 13.9616 25.7174 13.7756L25.6141 13.6863C25.4017 13.501 25.3783 13.178 25.5643 12.9641L28.4815 9.60814C28.9605 9.05811 28.7335 8.57103 28.3775 8.26194C28.0223 7.95359 27.5089 7.79609 27.0298 8.34692L24.1126 11.7029C23.9273 11.916 23.6036 11.9387 23.3905 11.7527L23.2879 11.6634C23.074 11.4781 23.0513 11.1544 23.2366 10.9412L26.1407 7.60062C26.9983 6.6148 25.5643 5.4268 24.7271 6.38994C23.7244 7.54278 21.9542 9.57889 21.9542 9.57889C20.4073 11.3455 20.4307 12.1731 20.649 13.3325C20.8262 14.2671 21.0862 14.9395 20.1261 16.044L18.7088 17.6743L20.1957 19.3831L21.8195 17.5154C22.7789 16.4116 23.4813 16.5757 24.4313 16.6204C25.6105 16.6767 26.433 16.5845 27.9667 14.8076C27.9667 14.8076 29.737 12.77 30.7396 11.6172C31.5768 10.654 30.2006 9.40011 29.3436 10.3852Z" fill="black"/>
<path d="M15.7074 21.1262L9.30167 28.4943L10.9943 29.9665L17.2682 22.7507L15.9769 21.2653L15.7074 21.1262Z" fill="black"/>
</g>
<defs>
<clipPath id="clip0_2323_26">
<rect width="24" height="24" fill="white" transform="translate(7 6)"/>
</clipPath>
</defs>
</svg>
